<svg id="about-icon" xmlns="http://www.w3.org/2000/svg" width="64" height="64" viewBox="0 0 64 64">
  <path id="Caminho_1" data-name="Caminho 1" d="M27.813,52.17a.92.92,0,0,1-.3-.049A24.072,24.072,0,0,1,11.879,36.485.913.913,0,0,1,12,35.663L25.576,16.285C34.253,5.025,48.24-1,63.023.137a.913.913,0,0,1,.841.84C65,15.758,58.976,29.745,47.748,38.4l-.033.025L28.337,52A.907.907,0,0,1,27.813,52.17ZM13.761,36.327A22.229,22.229,0,0,0,27.673,50.239L46.65,36.94C57.177,28.819,62.916,15.771,62.1,1.907,48.214,1.085,35.168,6.83,27.048,17.369Z" fill="#48c9b0"/>
  <path id="Caminho_2" data-name="Caminho 2" d="M60.8,19.481a.934.934,0,0,1-.173-.016,20.153,20.153,0,0,1-10.51-5.578,20.153,20.153,0,0,1-5.579-10.51.914.914,0,0,1,1.795-.342A18.333,18.333,0,0,0,51.406,12.6a18.334,18.334,0,0,0,9.562,5.075.913.913,0,0,1-.17,1.81Z" fill="#48c9b0"/>
  <path id="Caminho_3" data-name="Caminho 3" d="M39.933,31.22a7.133,7.133,0,1,1,2.738-.542A7.152,7.152,0,0,1,39.933,31.22Zm0-12.48a5.3,5.3,0,1,0,2.04.4A5.331,5.331,0,0,0,39.933,18.74Z" fill="#48c9b0"/>
  <path id="Caminho_4" data-name="Caminho 4" d="M35,63.931h-.055a.913.913,0,0,1-.724-.436L27.035,51.736a.914.914,0,0,1,1.559-.953l6.5,10.639,4.922-6.233a13.258,13.258,0,0,0,2.725-9.863l-.6-4.621a.913.913,0,1,1,1.811-.236l.6,4.622a15.091,15.091,0,0,1-3.105,11.233l-5.735,7.263a.913.913,0,0,1-.713.343Z" fill="#48c9b0"/>
  <path id="Caminho_5" data-name="Caminho 5" d="M12.741,37.1a.914.914,0,0,1-.476-.133L.507,29.779a.913.913,0,0,1-.091-1.495L7.679,22.55a15.1,15.1,0,0,1,11.234-3.105l4.622.6a.913.913,0,1,1-.236,1.811l-4.621-.6a13.264,13.264,0,0,0-9.864,2.725L2.578,28.905l10.639,6.5a.913.913,0,0,1-.477,1.692Z" fill="#48c9b0"/>
  <path id="Caminho_6" data-name="Caminho 6" d="M12.112,64a.913.913,0,0,1-.646-1.559l8.157-8.157a.913.913,0,1,1,1.292,1.291l-8.157,8.156A.914.914,0,0,1,12.112,64Z" fill="#48c9b0"/>
  <path id="Caminho_7" data-name="Caminho 7" d="M.913,52.8a.913.913,0,0,1-.646-1.559l8.157-8.156a.913.913,0,1,1,1.291,1.291L1.559,52.534A.913.913,0,0,1,.913,52.8Z" fill="#48c9b0"/>
  <path id="Caminho_8" data-name="Caminho 8" d="M1.467,63.446a.913.913,0,0,1-.646-1.559L9.6,53.109A.913.913,0,0,1,10.891,54.4L2.112,63.179A.913.913,0,0,1,1.467,63.446Z" fill="#48c9b0"/>
</svg>
