<svg xmlns="http://www.w3.org/2000/svg" width="60" height="60" viewBox="0 0 60 60">
  <path id="martial-arts-uniform-svgrepo-com" d="M53.875,8.962,53.723,8.8l-.213-.107C41.1,2.459,38.364,2.152,32.843,2.009q-.842-.018-1.685,0c-5.522.143-8.258.449-20.668,6.68l-.213.107-.152.166C9.792,9.33,2,18.355,2,52.74l.008,1.523,1.7-.5c.033-.01,3.313-.936,9.521-.15a44.109,44.109,0,0,1-2.463,5.764l-.531,1.039,1.246.41c.35.113,8.545,2.7,19.752-1.295A38,38,0,0,0,44.406,62a24.636,24.636,0,0,0,8.174-1.195l1.154-.441-.5-.984a44.109,44.109,0,0,1-2.463-5.764c6.209-.785,9.488.141,9.516.148L62,54.285V52.74c0-34.385-7.793-43.41-8.125-43.778M31.238,4.183c.381-.01,1.145-.01,1.523,0a26.767,26.767,0,0,1,5.2.475q-2.293,8.552-5.02,16.978c-3.991-6.6-6.131-14.9-6.637-17.033a27.637,27.637,0,0,1,4.932-.42M4.572,51.373c.013-1.982.053-3.871.116-5.68a19.224,19.224,0,0,1,8.173-1.854,19.073,19.073,0,0,0-8.086-.322c1.118-23.87,6.412-31.925,7.271-33.081C14.9,9.006,17.2,7.913,19.123,7.071a73.466,73.466,0,0,0,7.22,13.24A126.055,126.055,0,0,1,21.56,6.055c.837-.326,1.59-.594,2.28-.813.664,2.783,3.208,12.386,8.114,19.369A143.1,143.1,0,0,1,26.347,39c-3.517.15-6.112.445-7.613.654a41.905,41.905,0,0,0-.475-8.147,30.682,30.682,0,0,1,0-11.273,9.353,9.353,0,0,0-1.336,3.021l-2.09-2.6c2.086,4.652.025,4.252,1.488,11.4a16.857,16.857,0,0,1,.254,1.737,13.207,13.207,0,0,0-7.137.949,12.579,12.579,0,0,1,7.236.9,48.116,48.116,0,0,1-1.12,10A18.331,18.331,0,0,0,9.22,46.65a13.99,13.99,0,0,1,5.973.672q-.481,2.121-1.059,4.219a35,35,0,0,0-9.562-.168m9.8,7.848C16.8,54.639,18.1,48.5,18.556,42.811c2.256.25,4.436.424,6.52.541a31.881,31.881,0,0,0-6.816,9.367s2.266.711,4.406,1.344a50.457,50.457,0,0,1,4.263-6.549,91.658,91.658,0,0,0,2.769,10.2,32.19,32.19,0,0,1-15.322,1.5m17.936-1.664A79.52,79.52,0,0,1,29.1,44.92c.712.557,1.318.9,1.558.7.271-.232,1.23-.951,2.24-1.768a50,50,0,0,1,6.387,9.119c2.141-.633,4.406-1.344,4.406-1.344A34.242,34.242,0,0,0,38.041,43.4c3.719-.178,6.4-.48,7.633-.639.455,5.713,1.762,11.9,4.205,16.494-2.875.613-9.3,1.332-17.567-1.7M50.09,51.51q-.529-1.928-.979-3.877a13.894,13.894,0,0,1,6.787-.982,17.739,17.739,0,0,0-7.207-.947,50.016,50.016,0,0,1-1.135-9.543c3.408-2.355,8.121-1.418,8.121-1.418-2.848-1.48-6.68-1.049-8.033-.832a17.119,17.119,0,0,1,.266-1.854c1.463-7.15-.6-6.75,1.488-11.4l-2.09,2.6a9.353,9.353,0,0,0-1.336-3.021,30.629,30.629,0,0,1,0,11.273,42.261,42.261,0,0,0-.469,8.272q-5.978-.712-12-.85c-1.122-.91-2.337-1.734-2.836-1.426,0,0-.544.354-1.273.857C34.57,26.756,39.365,9.267,40.418,5.327c.693.227,1.449.5,2.289.835a127.323,127.323,0,0,1-4.76,14.15A73.815,73.815,0,0,0,45.123,7.179c1.871.827,4.1,1.888,6.83,3.256.871,1.175,6.129,9.208,7.266,32.913a19.648,19.648,0,0,0-6.963.492,20.557,20.557,0,0,1,7.037,1.318c.074,1.971.123,4.033.137,6.215a34.736,34.736,0,0,0-9.34.137" transform="translate(-2 -2)" fill="#48c9b0"/>
</svg>
