<svg xmlns="http://www.w3.org/2000/svg" width="70" height="65" viewBox="0 0 70 65">
  <g id="kung-fu-1-svgrepo-com" transform="translate(0 -93.487)">
    <path id="Caminho_1" data-name="Caminho 1" d="M66.393,112.558c-3.483-2.378-6.307-3.327-7.236-4.612s-.538-4.614-1.895-4.56-2.531,3.006-2.437,4.529c.09,1.474,2.84,4.429,2.84,4.429l-4.351-2.182s-.439-4.221-.1-5.294S56.077,98,51.847,94.462s-8.544,2.984-7,12.858c0,0-7.749-.492-11.276-1.51-1.33-.385-9.738-4.02-10.934-5.163s-2.788-3.862-4.535-5.382.535,4.612,2.04,7.6c.477,1.307-.322,1.009-1.816.968-1.01-.028-1.118,1.931,1.241,2.236l4.719.606s4.929,3.846,7.541,4.852a26.547,26.547,0,0,0,7.411,1.562c-1.239,2.83-1.216,6.493-2.043,8.77-1.469,4.039-5.185,1.2-5.185,1.2s-10.206-7.377-11.023-7.61S8.017,107.97,7.123,106.825C6.772,106.376,12,101.164,9.56,99.7c-1.881-1.132-5.091.169-6.656,3.674s-3.606,5.7-2.665,7.652a4,4,0,0,0,3.3,2.254c1,.167,10.656,9.718,14.362,11.823,2.835,1.608,12.454,11.525,12.454,11.525,1.489.927,6.589,8.743,6.589,8.743s-6.107-.806-7.108-1.163-4.141-6.093-4.887-7.256-1.9.341-1.6,1.518c-.331,1.735-.914,5.666.748,7.453s4.956,4.935,4.956,4.935,10.094,6.326,14.241,7.5c4.3,1.22,7.749-6.386,5.241-12.919a35.907,35.907,0,0,1-2.029-8.164s4.217-3.243,9.068-12.671c3.691-1.071,12.116-.708,13.693-3.551S69.878,114.938,66.393,112.558Z" transform="translate(0 0)" fill="#48c9b0"/>
  </g>
</svg>
