<svg xmlns="http://www.w3.org/2000/svg" width="54" height="48.062" viewBox="0 0 54 48.062">
  <path id="contact-icon3" d="M24.75,10.5A2.221,2.221,0,0,1,27,8.25a2.281,2.281,0,0,1,2.25,2.25A2.221,2.221,0,0,1,27,12.75,2.166,2.166,0,0,1,24.75,10.5Zm.844,18.75c-3-3.75-9.844-12.844-9.844-18a11.25,11.25,0,0,1,22.5,0c0,5.156-6.937,14.25-9.937,18A1.666,1.666,0,0,1,25.594,29.25Zm8.719-14.719a8.861,8.861,0,0,0,.938-3.281,8.25,8.25,0,0,0-16.5,0,8.285,8.285,0,0,0,.844,3.281,32.16,32.16,0,0,0,2.437,4.688A69.195,69.195,0,0,0,27,26.25c1.406-1.875,3.281-4.406,4.875-7.031A32.161,32.161,0,0,0,34.313,14.531Zm3.656,6.375c0,.094-.094.094-.188.094a41,41,0,0,0,2.063-4.031l11.062-4.406A2.273,2.273,0,0,1,54,14.625V40.031a2.109,2.109,0,0,1-1.5,2.063L37.969,47.906a1.075,1.075,0,0,1-.938.094L16.5,42.094,3,47.531a2.2,2.2,0,0,1-3-2.062V20.063A2.03,2.03,0,0,1,1.406,18l11.531-4.687a14.843,14.843,0,0,0,.844,2.906L3,20.531V44.344l12-4.781V28.5A1.542,1.542,0,0,1,16.5,27,1.613,1.613,0,0,1,18,28.5V39.375l18,5.156V28.5A1.542,1.542,0,0,1,37.5,27,1.613,1.613,0,0,1,39,28.5V44.344l12-4.781V15.75Z" fill="#f1c40f"/>
</svg>
