<svg xmlns="http://www.w3.org/2000/svg" width="48" height="48" viewBox="0 0 48 48">
  <path id="contact-icon2" d="M46.5,18A1.542,1.542,0,0,0,45,19.5v24A1.542,1.542,0,0,1,43.5,45H4.5A1.481,1.481,0,0,1,3,43.5v-24A1.613,1.613,0,0,0,1.5,18,1.542,1.542,0,0,0,0,19.5v24A4.442,4.442,0,0,0,4.5,48h39A4.482,4.482,0,0,0,48,43.594V19.5A1.613,1.613,0,0,0,46.5,18ZM6,25.969a.344.344,0,0,1,.094.281l.188.188c.094.094.094.188.188.281h.094l12.469,9.187A8.275,8.275,0,0,0,24,37.5a7.7,7.7,0,0,0,4.875-1.687l12.469-9.187h.094c.094-.094.094-.187.188-.281l.188-.188a.345.345,0,0,1,.094-.281v-.281A.092.092,0,0,0,42,25.5V4.5A4.563,4.563,0,0,0,37.5,0h-27A4.5,4.5,0,0,0,6,4.5V25.969ZM9,4.5A1.542,1.542,0,0,1,10.5,3h27A1.613,1.613,0,0,1,39,4.5V24.75L27.094,33.469a5.2,5.2,0,0,1-6.281,0L9,24.75Zm24,18A1.542,1.542,0,0,0,31.5,21h-15A1.481,1.481,0,0,0,15,22.5a1.463,1.463,0,0,0,1.5,1.406h15A1.4,1.4,0,0,0,33,22.5ZM16.5,15h15A1.613,1.613,0,0,0,33,13.5a1.528,1.528,0,0,0-1.5-1.406h-15A1.529,1.529,0,0,0,15,13.5,1.481,1.481,0,0,0,16.5,15Z" fill="#f1c40f"/>
</svg>
