<svg xmlns="http://www.w3.org/2000/svg" width="47.909" height="47.929" viewBox="0 0 47.909 47.929">
  <path id="contact-icon1" d="M18.906,23a3.085,3.085,0,0,0-3-3h-3a5.982,5.982,0,0,0-6,6v6a6.042,6.042,0,0,0,6,6h3a2.962,2.962,0,0,0,3-3Zm-3,12h-3a2.962,2.962,0,0,1-3-3V26a3.021,3.021,0,0,1,3-3h3Zm21,3a6.042,6.042,0,0,0,6-6V26a5.962,5.962,0,0,0-6-5.906H34a3.021,3.021,0,0,0-3,3v12a2.962,2.962,0,0,0,3,3h2.906Zm-3-15h2.906a3.085,3.085,0,0,1,3,3v6a3.021,3.021,0,0,1-3,3h-3ZM27.25,2.188C12.813.781,1.375,12.313,1,26.094L.906,27.5A1.562,1.562,0,0,0,2.5,29,1.6,1.6,0,0,0,4,27.594V26C4.281,14.094,14.313,3.969,26.875,5.094,37.844,6.125,46,15.688,46,26.656V42.5A4.563,4.563,0,0,1,41.5,47H33.625a3.813,3.813,0,0,0-.187-3.469A5,5,0,0,0,29.031,41H23.594A4.71,4.71,0,0,0,19,44.656,4.518,4.518,0,0,0,23.406,50H41.313a7.442,7.442,0,0,0,7.5-7.406V26.656C49,14.188,39.625,3.313,27.25,2.188ZM29.406,47h-6a1.481,1.481,0,0,1-1.5-1.5,1.542,1.542,0,0,1,1.5-1.5h6a1.613,1.613,0,0,1,1.5,1.5A1.481,1.481,0,0,1,29.406,47Z" transform="translate(-0.906 -2.071)" fill="#f1c40f"/>
</svg>
