<svg id="feature-icon1-3" xmlns="http://www.w3.org/2000/svg" width="71.842" height="70" viewBox="0 0 71.842 70">
  <path id="Caminho_15" data-name="Caminho 15" d="M13.9,28.688a5.834,5.834,0,0,1-3.219-.967,5.749,5.749,0,0,1-2.134-2.575,5.7,5.7,0,0,1,1.256-6.253,5.825,5.825,0,0,1,8.914.869A5.69,5.69,0,0,1,18,27.006,5.83,5.83,0,0,1,13.9,28.688Zm0-9.18a3.5,3.5,0,0,0-1.931.58,3.45,3.45,0,0,0-1.28,1.545,3.418,3.418,0,0,0,.754,3.752,3.495,3.495,0,0,0,5.348-.522,3.417,3.417,0,0,0-.432-4.347A3.494,3.494,0,0,0,13.9,19.508Z" fill="#f1c40f"/>
  <path id="Caminho_16" data-name="Caminho 16" d="M10.429,52.787H1.159a1.165,1.165,0,0,1-.819-.336A1.142,1.142,0,0,1,0,51.639a24.634,24.634,0,0,1,1.8-9.278L5.59,32.987a5.8,5.8,0,0,1,2.639-2.935,5.875,5.875,0,0,1,6.1.329,5.823,5.823,0,0,1,1.632,1.69L20.394,39.1l5.446.77a3.649,3.649,0,0,1,2.321,1.3,3.581,3.581,0,0,1-.351,4.905,3.66,3.66,0,0,1-2.484.966h-9.1a1.167,1.167,0,0,1-.61-.171,1.153,1.153,0,0,1-.427-.463l-1.921-3.805-1.7,9.236a1.145,1.145,0,0,1-.4.675A1.166,1.166,0,0,1,10.429,52.787Zm-8.082-2.3H9.461l2.146-11.681a1.145,1.145,0,0,1,.337-.621,1.164,1.164,0,0,1,1.84.313l3.155,6.251h8.388a1.33,1.33,0,0,0,.9-.352,1.3,1.3,0,0,0,.129-1.779,1.326,1.326,0,0,0-.84-.476L19.534,41.3a1.166,1.166,0,0,1-.468-.174,1.153,1.153,0,0,1-.35-.354l-4.724-7.485a3.506,3.506,0,0,0-1.417-1.273,3.546,3.546,0,0,0-3.666.325,3.488,3.488,0,0,0-1.166,1.5L3.956,43.213A22.386,22.386,0,0,0,2.346,50.492Z" fill="#f1c40f"/>
  <path id="Caminho_17" data-name="Caminho 17" d="M57.937,28.688a5.834,5.834,0,0,1-3.219-.967,5.749,5.749,0,0,1-2.134-2.575,5.7,5.7,0,0,1,1.256-6.253,5.825,5.825,0,0,1,8.914.869,5.69,5.69,0,0,1-.723,7.243A5.829,5.829,0,0,1,57.937,28.688Zm0-9.18a3.5,3.5,0,0,0-1.931.58,3.45,3.45,0,0,0-1.28,1.545,3.418,3.418,0,0,0,.753,3.752,3.495,3.495,0,0,0,5.348-.522,3.417,3.417,0,0,0-.432-4.347A3.493,3.493,0,0,0,57.937,19.508Z" fill="#f1c40f"/>
  <path id="Caminho_18" data-name="Caminho 18" d="M70.683,52.787h-9.27a1.166,1.166,0,0,1-.742-.267,1.145,1.145,0,0,1-.4-.675l-1.7-9.236-1.915,3.805a1.153,1.153,0,0,1-.43.465,1.168,1.168,0,0,1-.613.17h-9.1a3.66,3.66,0,0,1-2.485-.965,3.58,3.58,0,0,1-.353-4.907A3.649,3.649,0,0,1,46,39.874l5.446-.77,4.439-7.033a5.824,5.824,0,0,1,1.632-1.69,5.878,5.878,0,0,1,6.1-.33,5.8,5.8,0,0,1,2.638,2.936l3.786,9.374a24.633,24.633,0,0,1,1.805,9.278,1.142,1.142,0,0,1-.339.812A1.164,1.164,0,0,1,70.683,52.787Zm-8.3-2.3H69.5a22.385,22.385,0,0,0-1.609-7.279L64.1,33.84a3.488,3.488,0,0,0-1.166-1.5,3.534,3.534,0,0,0-5.082.948l-4.725,7.485a1.153,1.153,0,0,1-.35.354,1.166,1.166,0,0,1-.468.174l-5.981.847a1.326,1.326,0,0,0-.84.476,1.3,1.3,0,0,0,.129,1.779,1.33,1.33,0,0,0,.9.352H54.9L58.059,38.5a1.154,1.154,0,0,1,.5-.5,1.167,1.167,0,0,1,1.341.189,1.145,1.145,0,0,1,.337.621Z" fill="#f1c40f"/>
  <path id="Caminho_19" data-name="Caminho 19" d="M50.561,35.992l-1.526-3.86H22.808l-1.072,2.713-2.153-.835,1.359-3.443a1.15,1.15,0,0,1,.424-.529,1.167,1.167,0,0,1,.65-.2h27.81a1.166,1.166,0,0,1,.654.2,1.15,1.15,0,0,1,.426.53l1.813,4.59Z" fill="#f1c40f"/>
  <path id="Caminho_20" data-name="Caminho 20" d="M35.921,57.377a6.994,6.994,0,0,1-4.914-2.019,6.858,6.858,0,0,1-2.038-4.867V49.344A6.852,6.852,0,0,1,31,44.476a7,7,0,0,1,9.832,0,6.852,6.852,0,0,1,2.036,4.869v1.147a6.859,6.859,0,0,1-2.038,4.867A6.994,6.994,0,0,1,35.921,57.377Zm0-12.623A4.658,4.658,0,0,0,32.644,46.1a4.568,4.568,0,0,0-1.358,3.246v1.147a4.568,4.568,0,0,0,1.358,3.246,4.667,4.667,0,0,0,6.555,0,4.568,4.568,0,0,0,1.357-3.246V49.344A4.568,4.568,0,0,0,39.2,46.1,4.658,4.658,0,0,0,35.921,44.754Z" fill="#f1c40f"/>
  <path id="Caminho_21" data-name="Caminho 21" d="M48.667,70H46.35V64.262a3.426,3.426,0,0,0-1.018-2.434,3.494,3.494,0,0,0-2.458-1.008h-13.9a3.494,3.494,0,0,0-2.458,1.008,3.426,3.426,0,0,0-1.018,2.434V70H23.175V64.262a5.717,5.717,0,0,1,1.7-4.055,5.83,5.83,0,0,1,4.095-1.682h13.9a5.83,5.83,0,0,1,4.095,1.682,5.717,5.717,0,0,1,1.7,4.055Z" fill="#f1c40f"/>
  <path id="Caminho_22" data-name="Caminho 22" d="M60.255,63.115H49.826v-2.3H59.1V57.593l-3.548-8.978,2.159-.835,3.628,9.18a1.138,1.138,0,0,1,.079.418v4.59a1.142,1.142,0,0,1-.339.811A1.164,1.164,0,0,1,60.255,63.115Z" fill="#f1c40f"/>
  <path id="Caminho_23" data-name="Caminho 23" d="M22.016,63.115H11.587a1.164,1.164,0,0,1-.819-.336,1.142,1.142,0,0,1-.339-.811v-4.59a1.138,1.138,0,0,1,.079-.418l3.628-9.18,2.16.835-3.549,8.978V60.82h9.27Z" fill="#f1c40f"/>
  <path id="Caminho_24" data-name="Caminho 24" d="M68.366,30.984H66.048V2.3H5.794V30.984H3.476V1.148A1.142,1.142,0,0,1,3.816.336,1.165,1.165,0,0,1,4.635,0H67.207a1.165,1.165,0,0,1,.819.336,1.142,1.142,0,0,1,.339.811Z" fill="#f1c40f"/>
  <path id="Caminho_25" data-name="Caminho 25" d="M23.994,23.762l-1.639-1.623,8.111-8.033a1.167,1.167,0,0,1,1.639,0l6.133,6.074L52.483,6.074,54.121,7.7,39.058,22.615a1.167,1.167,0,0,1-1.639,0l-6.133-6.074Z" fill="#f1c40f"/>
  <path id="Caminho_26" data-name="Caminho 26" d="M54.461,13.771H52.144V8.033H46.35v-2.3H53.3a1.165,1.165,0,0,1,.819.336,1.142,1.142,0,0,1,.339.811Z" fill="#f1c40f"/>
  <path id="Caminho_27" data-name="Caminho 27" d="M11.587,5.738h13.9v2.3h-13.9Z" fill="#f1c40f"/>
  <path id="Caminho_28" data-name="Caminho 28" d="M11.587,10.328H19.7v2.3H11.587Z" fill="#f1c40f"/>
</svg>
