<svg id="feature-icon1-1" xmlns="http://www.w3.org/2000/svg" width="67.879" height="70" viewBox="0 0 67.879 70">
  <path id="Caminho_10" data-name="Caminho 10" d="M7.424,50.909a6.371,6.371,0,1,0-4.5-1.866A6.363,6.363,0,0,0,7.424,50.909Zm0-10.606a4.247,4.247,0,1,1-3,1.244A4.242,4.242,0,0,1,7.424,40.3Z" fill="#f1c40f"/>
  <path id="Caminho_11" data-name="Caminho 11" d="M55.9,8.8a1.06,1.06,0,0,0-1.5,1.5l3.182,3.182a1.061,1.061,0,0,0,1.769-.458c.021-.07,2.048-7,5.819-8.889a1.061,1.061,0,0,0-.949-1.9c-3.335,1.668-5.414,6.1-6.343,8.541Z" fill="#f1c40f"/>
  <path id="Caminho_12" data-name="Caminho 12" d="M58.333,19.091a9.556,9.556,0,0,0,9.545-9.545,9.772,9.772,0,0,0-.3-2.379,1.06,1.06,0,0,0-2.057.516,7.7,7.7,0,0,1,.233,1.863,7.424,7.424,0,1,1-7.424-7.424,7.7,7.7,0,0,1,1.863.233A1.06,1.06,0,1,0,60.712.3,9.772,9.772,0,0,0,58.333,0a9.545,9.545,0,0,0,0,19.091Z" fill="#f1c40f"/>
  <path id="Caminho_13" data-name="Caminho 13" d="M14.849,41.364a1.054,1.054,0,0,0,.613-.2l30.7-21.788-.537,2.684a1.061,1.061,0,0,0,.832,1.248,1.029,1.029,0,0,0,.209.021,1.06,1.06,0,0,0,1.039-.852l1.061-5.3c0-.005,0-.01,0-.015a1.067,1.067,0,0,0,0-.273,1.091,1.091,0,0,0,0-.141,1.1,1.1,0,0,0-.055-.133,1.061,1.061,0,0,0-.109-.246l-.007-.015a1,1,0,0,0-.117-.11.7.7,0,0,0-.411-.262,1,1,0,0,0-.128-.054l-5.3-1.061a1.061,1.061,0,0,0-.416,2.08l2.893.578L14.234,39.438a1.061,1.061,0,0,0,.615,1.925Z" fill="#f1c40f"/>
  <path id="Caminho_14" data-name="Caminho 14" d="M66.818,67.879H64.7V22.273a1.06,1.06,0,0,0-1.061-1.061H53.03a1.06,1.06,0,0,0-1.061,1.061V67.879H47.727V35a1.06,1.06,0,0,0-1.061-1.061H36.061A1.06,1.06,0,0,0,35,35V67.879H30.758V47.727A1.06,1.06,0,0,0,29.7,46.667H19.091a1.06,1.06,0,0,0-1.061,1.061V67.879H13.788V54.091a1.06,1.06,0,0,0-1.061-1.061H2.121a1.06,1.06,0,0,0-1.061,1.061V67.879a1.061,1.061,0,1,0,0,2.121H66.818a1.061,1.061,0,0,0,0-2.121ZM54.091,23.333h8.485V67.879H54.091ZM37.121,36.061h8.485V67.879H37.121ZM20.152,48.788h8.485V67.879H20.152ZM3.182,55.152h8.485V67.879H3.182Z" fill="#f1c40f"/>
</svg>
