<svg id="feature-icon1-2" xmlns="http://www.w3.org/2000/svg" width="69.236" height="70" viewBox="0 0 69.236 70">
  <path id="Caminho_1" data-name="Caminho 1" d="M35,24.815H8.749a1.025,1.025,0,1,0,0,2.051H35a1.025,1.025,0,1,0,0-2.051Z" fill="#f1c40f"/>
  <path id="Caminho_2" data-name="Caminho 2" d="M35,32.02H8.749a1.025,1.025,0,1,0,0,2.051H35a1.025,1.025,0,1,0,0-2.051Z" fill="#f1c40f"/>
  <path id="Caminho_3" data-name="Caminho 3" d="M35,39.224H8.749a1.025,1.025,0,1,0,0,2.05H35a1.025,1.025,0,1,0,0-2.05Z" fill="#f1c40f"/>
  <path id="Caminho_4" data-name="Caminho 4" d="M36.022,47.454A1.025,1.025,0,0,0,35,46.429H8.749a1.025,1.025,0,1,0,0,2.05H35A1.025,1.025,0,0,0,36.022,47.454Z" fill="#f1c40f"/>
  <path id="Caminho_5" data-name="Caminho 5" d="M8.749,56.987a1.025,1.025,0,0,0,0,2.051H21.907a1.025,1.025,0,0,0,0-2.051Z" fill="#f1c40f"/>
  <path id="Caminho_6" data-name="Caminho 6" d="M46.813,12.695V9.368a2.3,2.3,0,0,0-2.3-2.3H23.464a2.3,2.3,0,0,0-2.3,2.3v3.327a2.3,2.3,0,0,0,2.3,2.3h1.778a1.025,1.025,0,1,0,0-2.05H23.464a.248.248,0,0,1-.248-.248V9.368a.248.248,0,0,1,.248-.248h21.05a.248.248,0,0,1,.248.248v3.327a.248.248,0,0,1-.248.248H30.035a1.025,1.025,0,1,0,0,2.05H44.514A2.3,2.3,0,0,0,46.813,12.695Z" fill="#f1c40f"/>
  <path id="Caminho_7" data-name="Caminho 7" d="M54.479,62.521a1.025,1.025,0,0,0-1.025,1.025v1.381a3.026,3.026,0,0,1-3.023,3.022H5.073a3.026,3.026,0,0,1-3.022-3.022V15.644a3.043,3.043,0,0,1,.072-.651h9.336a3.539,3.539,0,0,0,3.535-3.535V2.123a3.042,3.042,0,0,1,.651-.072H50.431a3.026,3.026,0,0,1,3.023,3.022v13.65a1.025,1.025,0,0,0,2.051,0V5.073A5.079,5.079,0,0,0,50.431,0H15.644a5.04,5.04,0,0,0-3.587,1.486L1.486,12.057A5.04,5.04,0,0,0,0,15.645V64.927A5.079,5.079,0,0,0,5.073,70H50.431A5.079,5.079,0,0,0,55.5,64.927V63.546A1.025,1.025,0,0,0,54.479,62.521ZM12.943,3.5v7.958a1.486,1.486,0,0,1-1.484,1.484H3.5Z" fill="#f1c40f"/>
  <path id="Caminho_8" data-name="Caminho 8" d="M68.522,36.64a4.1,4.1,0,0,0-2-6.167,2.037,2.037,0,0,1-1.356-1.867A4.1,4.1,0,0,0,59.916,24.8a2.037,2.037,0,0,1-2.194-.713,4.1,4.1,0,0,0-6.485,0,2.037,2.037,0,0,1-2.194.713A4.1,4.1,0,0,0,43.8,28.607a2.037,2.037,0,0,1-1.356,1.867,4.1,4.1,0,0,0-2,6.167,2.038,2.038,0,0,1,0,2.307,4.1,4.1,0,0,0,2,6.167A2.037,2.037,0,0,1,43.8,46.982a4.1,4.1,0,0,0,3.54,3.938v9.335a2.176,2.176,0,0,0,3.317,1.853l3.76-2.315a.107.107,0,0,1,.132,0l3.76,2.315a2.176,2.176,0,0,0,3.317-1.853V50.919a4.1,4.1,0,0,0,3.54-3.937,2.037,2.037,0,0,1,1.356-1.867,4.1,4.1,0,0,0,2-6.167A2.036,2.036,0,0,1,68.522,36.64ZM59.38,60.361l-3.76-2.315a2.176,2.176,0,0,0-2.281,0l-3.76,2.315a.125.125,0,0,1-.191-.107V50.725a2.034,2.034,0,0,1,1.85.782,4.1,4.1,0,0,0,6.485,0,2.034,2.034,0,0,1,1.85-.782v9.529A.125.125,0,0,1,59.38,60.361ZM66.827,40.1a2.049,2.049,0,0,1-1,3.082,4.076,4.076,0,0,0-2.714,3.735,2.021,2.021,0,0,1-.738,1.514,2.042,2.042,0,0,1-1.884.392A4.077,4.077,0,0,0,56.1,50.251a2.049,2.049,0,0,1-3.241,0,4.074,4.074,0,0,0-3.23-1.594,4.14,4.14,0,0,0-1.161.167,2.041,2.041,0,0,1-1.885-.392,2.02,2.02,0,0,1-.738-1.513,4.077,4.077,0,0,0-2.714-3.735,2.049,2.049,0,0,1-1-3.082,4.077,4.077,0,0,0,0-4.617,2.049,2.049,0,0,1,1-3.083,4.077,4.077,0,0,0,2.714-3.735,2.049,2.049,0,0,1,2.622-1.905,4.077,4.077,0,0,0,4.391-1.426,2.049,2.049,0,0,1,3.241,0,4.076,4.076,0,0,0,4.391,1.427,2.049,2.049,0,0,1,2.622,1.9A4.077,4.077,0,0,0,65.826,32.4a2.049,2.049,0,0,1,1,3.082A4.076,4.076,0,0,0,66.827,40.1Z" fill="#f1c40f"/>
  <path id="Caminho_9" data-name="Caminho 9" d="M54.479,29.2a8.593,8.593,0,1,0,8.593,8.593A8.6,8.6,0,0,0,54.479,29.2Zm0,15.136a6.543,6.543,0,1,1,6.543-6.543A6.55,6.55,0,0,1,54.479,44.337Z" fill="#f1c40f"/>
</svg>
