<svg xmlns="http://www.w3.org/2000/svg" width="35.181" height="57.685" viewBox="0 0 35.181 57.685">
  <g id="yoga-exercise-svgrepo-com" transform="translate(-11.252)">
    <path id="Caminho_1" data-name="Caminho 1" d="M46.082,55.274l-.289-.479-.769-1.538-.383-.928a19.863,19.863,0,0,1-.7-2.132l-.329-1.247-.2-.608a6.729,6.729,0,0,0-.883-1.528L41.346,45.3a8.258,8.258,0,0,1-.97-2.051A23.1,23.1,0,0,1,39.7,40.67a10.509,10.509,0,0,0-.619-2.126l-.628-1.354a2.836,2.836,0,0,1-.183-.982l0-.458a.31.31,0,0,0,0-.108V35.48A14.574,14.574,0,0,0,35.869,29.2a4.319,4.319,0,0,1-.376-1.966c-.036-.576-.231-1.755-.4-2.8l-.017-.1c-.111-.671-.218-1.305-.24-1.553a10.222,10.222,0,0,0-.942-3.213,14.315,14.315,0,0,1-.916-3.422l-.022-.121c-.048-.261-.024-1.722.008-2.681l0-1.225A15.42,15.42,0,0,0,32.8,9.988l-.154-.894c0-.011-.28-1.131-.33-1.4a5.815,5.815,0,0,1-.1-.86c0-.212.045-.748.1-1.2l.1-.861.15-2.022.075-.688a3.845,3.845,0,0,0-.2-1.56A.681.681,0,0,0,31.81,0c-.229,0-.551.124-.777.713l-.314.831-.484.994a16.7,16.7,0,0,1-1.013,1.753,2.312,2.312,0,0,0-.41,1.82A2.774,2.774,0,0,0,29.8,7.355a3.932,3.932,0,0,1,.456,1.9v1.351a23.956,23.956,0,0,1-.7,3.7,7.642,7.642,0,0,0,.847,5.315,4.088,4.088,0,0,1,.541,2.1c.027.244.06.524.1.849a65.078,65.078,0,0,1,0,7,3.5,3.5,0,0,0-.438,3.279,2.1,2.1,0,0,1,.1.425,1.156,1.156,0,0,1-.3.657,15.529,15.529,0,0,0-2.939,2.481,20.346,20.346,0,0,0-2.336,3.259,11.115,11.115,0,0,0-1.22,3.4c-.041.195-.077.371-.119.525-.247.928-.617,1.986-1.1,3.293A13.561,13.561,0,0,1,21.41,49.5a2.08,2.08,0,0,0-.383.4,3.081,3.081,0,0,1-.821.781,2.084,2.084,0,0,0-.9.906c-.113.18-.248.411-.393.659l-.048.081c-.208.359-.467.809-.677,1.111a5.361,5.361,0,0,1-.578.756,1.234,1.234,0,0,0-.424.34,1.416,1.416,0,0,1-.674.264c-.413.055-.989.15-1.292.229a4.291,4.291,0,0,0-.956.385l-.628.346a2.588,2.588,0,0,1-.54.19l-.562.094a2.873,2.873,0,0,0-.957.492.633.633,0,0,0-.3.731c.052.156.219.416.754.416h4.309a1.291,1.291,0,0,0,.893-.422,4.5,4.5,0,0,1,.6-.525,1.526,1.526,0,0,1,.437-.227,1.779,1.779,0,0,0,.907-.381,13.273,13.273,0,0,0,1.09-.986l.657-.655,1.808-1.972.534-.651c.062-.074.118-.144.171-.2a2.249,2.249,0,0,0,.46.452,2.477,2.477,0,0,0,1.452.452,3.661,3.661,0,0,0,2.871-1.6c1.107-1.547.969-3.55-.309-4.464a1.243,1.243,0,0,0-.191-.111,2.55,2.55,0,0,0,.337-.676,2.579,2.579,0,0,1,.385-.607,4.7,4.7,0,0,1,.345-.411.53.53,0,0,1,.173-.048l.013,0a2.552,2.552,0,0,0,.875.037A1.906,1.906,0,0,0,31.4,43.267a3,3,0,0,0,.053-.744l.73-.76a3.306,3.306,0,0,0,.388-.486,2.371,2.371,0,0,0,.251-.68,6.259,6.259,0,0,0,.091-.8c0-.1.017-.24.034-.373.124.172.316.46.475.715a9.066,9.066,0,0,0,.664.938l.24.271.516.662a6.536,6.536,0,0,0,.754.848,2,2,0,0,1,.226.427,9.961,9.961,0,0,0,.464.981l.523.933a12.208,12.208,0,0,0,.682,1.038l.371.5.609.9,1.034,1.813.892,1.389.684,1.008.409.727.62,1.189a3.44,3.44,0,0,1,.156.342,3.562,3.562,0,0,1,.111.364c.016.064.03.144.042.21a4.419,4.419,0,0,1-.387.223l-.285.143-.921.381-1.381.5c-.048.015-.1.028-.177.048a1.482,1.482,0,0,0-.561.229.485.485,0,0,0-.188.448.582.582,0,0,0,.388.451l.358.162a5.137,5.137,0,0,0,1.612.2h3.1a9,9,0,0,0,1.177-.087,1.733,1.733,0,0,0,.987-.482,1.278,1.278,0,0,0,.289-.709A2.465,2.465,0,0,0,46.082,55.274ZM31.138,19.179a6.735,6.735,0,0,1-.756-4.638,24.179,24.179,0,0,0,.732-3.9V9.435a4.763,4.763,0,0,0,0-.547l-.08-.6a2.7,2.7,0,0,0-.744-1.666,1.956,1.956,0,0,1-.641-.792,1.6,1.6,0,0,1,.3-1.037,17.532,17.532,0,0,0,1.08-1.868l.5-1.029.213-.56a2.607,2.607,0,0,1,.028.632l-.078.7-.15,2.021-.1.842c-.062.517-.1,1.064-.1,1.3a6.983,6.983,0,0,0,.107,1.024c.021.108.082.348.162.641.1.367.248,1.059.334,1.542l.08.462a13.354,13.354,0,0,1,.08,1.635v1.19a27.829,27.829,0,0,0,.006,2.851l.023.128a16.5,16.5,0,0,0,.992,3.643,9.258,9.258,0,0,1,.855,2.905c.025.287.133.923.256,1.665l.007.035c.161.976.364,2.189.4,2.724.016.248.032.508.057.759a3.275,3.275,0,0,0-2.746.456,52.158,52.158,0,0,0-.051-6.029c-.039-.324-.071-.6-.1-.846A4.852,4.852,0,0,0,31.138,19.179ZM28.09,48.628a2.99,2.99,0,0,1-.586,1.83,2.774,2.774,0,0,1-2.15,1.237,1.626,1.626,0,0,1-.948-.292,1.473,1.473,0,0,1-.37-.4c.241-.273.658-.77,1.189-1.417l1.431-1.739c.185-.224.379-.476.566-.73a1.213,1.213,0,0,1,.176.1A1.755,1.755,0,0,1,28.09,48.628Zm-.308-4.072-.024.029a2.733,2.733,0,0,0-.539.943,4.182,4.182,0,0,1-.375.635l-.411.576c-.134.181-.28.369-.441.564l-1.43,1.739c-.442.538-.793.954-1.017,1.216l-.5.535c-.144.162-.323.377-.448.528l-.517.631L20.3,53.894l-.642.643a12.854,12.854,0,0,1-1,.908,1.458,1.458,0,0,1-.4.207,1.906,1.906,0,0,0-.937.393,5.679,5.679,0,0,0-.737.65.5.5,0,0,1-.249.132H13.082l.176-.029a3.388,3.388,0,0,0,.764-.269l.68-.371a3.443,3.443,0,0,1,.731-.293c.265-.067.814-.16,1.192-.21a2.114,2.114,0,0,0,1.212-.556.506.506,0,0,1,.123-.115c.158-.061.328-.176.935-1.051.228-.33.475-.758.714-1.17l.045-.078c.139-.237.268-.461.376-.631.313-.492.474-.562.476-.562a3.4,3.4,0,0,0,1.179-1.036c.156-.188.209-.244.218-.252a10.693,10.693,0,0,0,1.6-3.015c.487-1.32.864-2.4,1.122-3.366.044-.167.083-.353.129-.572q.05-.243.115-.524a7.2,7.2,0,0,0,2.941,1.795Zm2.84-1.957c-.02.16-.039.342-.07.508a1.033,1.033,0,0,1-.781.722A3.227,3.227,0,0,1,29,43.8a.645.645,0,0,0-.079-.008h0a1.291,1.291,0,0,0-.285.051,6.3,6.3,0,0,1-3.484-2.091,10.607,10.607,0,0,1,.738-1.661c.1-.181.221-.386.363-.61a10.167,10.167,0,0,0,4.458,2.627A2.342,2.342,0,0,0,30.622,42.6Zm1.536-3.666a4.912,4.912,0,0,0-.108.832,5.061,5.061,0,0,1-.074.668,1.489,1.489,0,0,1-.14.4,2.325,2.325,0,0,1-.267.332l-.221.229a9.511,9.511,0,0,1-4.607-2.654A18.411,18.411,0,0,1,28.1,37a14.56,14.56,0,0,1,2.808-2.357A5.97,5.97,0,0,1,32.387,38.5.914.914,0,0,0,32.158,38.933Zm1.077-.631a7.79,7.79,0,0,0-1.807-4.41,1.811,1.811,0,0,0,.133-.556,2.227,2.227,0,0,0-.129-.72,2.686,2.686,0,0,1,.389-2.658l.045-.08A1.973,1.973,0,0,1,33.752,28.8a3.757,3.757,0,0,1,1.091.178,1.92,1.92,0,0,0,.377.78,13.542,13.542,0,0,1,2.2,5.914l0,.54c0,.037,0,.076.005.115C36.491,36.411,34.072,36.785,33.235,38.3Zm12.244,18.05a1.168,1.168,0,0,1-.453.174,8.872,8.872,0,0,1-1.043.074h-3.1c-.232,0-.466-.012-.669-.029l.925-.348,1.274-.554c.093-.046.2-.1.292-.159l.1.277-.039-.316c.068-.043.131-.082.178-.117a.784.784,0,0,0,.337-.672c-.011-.093-.041-.275-.073-.408a4.386,4.386,0,0,0-.146-.482c-.055-.139-.146-.333-.2-.441L41.808,51.4l-1.57-2.39-1.043-1.825-1.018-1.453a11,11,0,0,1-.623-.951l-.521-.928a9.35,9.35,0,0,1-.417-.882,2.128,2.128,0,0,0-.509-.793,7.754,7.754,0,0,1-.6-.7l-.783-.965a8.323,8.323,0,0,1-.576-.824c-.1-.164-.219-.34-.322-.494.256-1.553,2.786-1.928,3.725-2.012a1.935,1.935,0,0,0,.141.4l.226.452.386.869a9.7,9.7,0,0,1,.559,1.92,23.431,23.431,0,0,0,.7,2.7,8.82,8.82,0,0,0,1.119,2.324l.551.683.615.808a6.09,6.09,0,0,1,.752,1.279l.191.58.32,1.222a21.7,21.7,0,0,0,.738,2.242l.4.954.8,1.6.305.511a2.664,2.664,0,0,1,.228.471A1.224,1.224,0,0,1,45.479,56.352Z" fill="#48c9b0"/>
  </g>
</svg>
