<svg xmlns="http://www.w3.org/2000/svg" width="49.662" height="45.224" viewBox="0 0 49.662 45.224">
  <g id="judo-fighter-svgrepo-com" transform="translate(0 -2.219)">
    <g id="Grupo_1" data-name="Grupo 1">
      <path id="Caminho_1" data-name="Caminho 1" d="M31.184,19.543c-.041-.072-.084-.141-.127-.206a5.7,5.7,0,0,0-4.246-5.212,6.219,6.219,0,0,0-3.333.093.071.071,0,0,1-.018-.012A117.717,117.717,0,0,1,9.776,4.284l-.3-.254-.854.854L6.667,2.966a2.605,2.605,0,0,0-3.65,3.718L4.94,8.571l-.694.694.352.3A131.4,131.4,0,0,0,19.142,20.221c-.106.582-.229,1.178-.36,1.784a1.34,1.34,0,0,0-1.151-.717,1.3,1.3,0,0,0-1.277,1.278,3.181,3.181,0,0,0,.1.949A21.482,21.482,0,0,1,14.6,21.769c-1.213-1.109-3.024.692-1.806,1.806.427.39.875.824,1.348,1.24A36.786,36.786,0,0,0,3.706,22.476l-.111,0A3.6,3.6,0,0,0,1.038,23.61,3.58,3.58,0,0,0,0,26.191,31.29,31.29,0,0,0,3.535,38.916l.2.416,1.059-.621,1.379,2.34a2.6,2.6,0,0,0,4.489-2.643L9.29,36.08l.818-.48-.17-.352A29.883,29.883,0,0,1,8.111,30.56c4.067,1.032,12.125,3.832,15.545,5.039l.641.221.126-.424a46.474,46.474,0,0,0,1.214-4.867c.035-.006.072-.01.106-.018a55.228,55.228,0,0,1-2.4,9.276l-.5,1.576,1.095.3-.607,2.572a2.606,2.606,0,1,0,5.073,1.2l.562-2.385.994.275.318-1C32.615,34.974,35.275,26.632,31.184,19.543ZM23.731,34.722C19.972,33.4,11.347,30.41,7.607,29.562l-.677-.153.169.672A28.684,28.684,0,0,0,9,35.262L4.1,38.13A30.01,30.01,0,0,1,.85,26.161a2.724,2.724,0,0,1,.8-1.957,2.747,2.747,0,0,1,1.945-.875h.081c3.859.137,7.553,1.4,11.126,2.611,1.038.355,2.109.719,3.174,1.053l.424.135.03-.113c2.063,1.185,3.907,3.313,6.335,3.525C24.529,31.778,24.195,33.128,23.731,34.722Zm5.726,7.351-.07.215-5.472-1.512.233-.73a49.427,49.427,0,0,0,2.561-10.6,1.374,1.374,0,0,0,.021-.313c.021-.28.049-.563.059-.846l.027-.755-.658.369c-.078.043-.146.095-.221.142A1.2,1.2,0,0,0,25.505,28c-2.225.172-4.169-2.3-6.051-3.326a6.114,6.114,0,0,0-.234-.748c.324-1.356.59-2.611.809-3.831l.051-.282-.241-.154A131.36,131.36,0,0,1,5.5,9.214L9.52,5.189A119.227,119.227,0,0,0,23,14.93c.035.022.067.045.1.069l.23.163.2-.067a5.4,5.4,0,0,1,3.045-.146,4.906,4.906,0,0,1,3.635,4.577l.011.113.063.093c.053.076.1.154.153.239C34.352,26.733,31.75,34.882,29.457,42.073Z" fill="#48c9b0"/>
      <circle id="Elipse_1" data-name="Elipse 1" cx="5.575" cy="5.575" r="5.575" transform="translate(26.408 4.207)" fill="#48c9b0"/>
      <path id="Caminho_2" data-name="Caminho 2" d="M48.412,40.755l-2.418-1.471.682-1.17-.391-.207c-4.4-2.332-8.506-4.285-12.539-5.969l-.49-.2-.094.521a54.763,54.763,0,0,1-1.59,6.357l-.111.364.354.15c3.463,1.479,6.988,3.174,10.777,5.18l.361.191.416-.715L45.7,45.2a2.6,2.6,0,0,0,2.709-4.448Zm-5.783,2.611C39.082,41.5,35.762,39.9,32.5,38.5a56.21,56.21,0,0,0,1.4-5.566c3.733,1.578,7.535,3.389,11.592,5.523Z" fill="#48c9b0"/>
    </g>
  </g>
</svg>
