<svg id="service-icon_2-3" xmlns="http://www.w3.org/2000/svg" width="62.225" height="55" viewBox="0 0 62.225 55">
  <path id="Caminho_1" data-name="Caminho 1" d="M39.539,30.815l-5.858-2.7c-3.561-1.646-8.062.1-11.314,3.956l-5.113-2.794c-1.135-.528-2.732.438-3.491,2.075a4.228,4.228,0,0,0-.382,2.443,1.984,1.984,0,0,0,1,1.535l4.734,2.593c-1.959,5.91-.489,11.821,3.685,13.744l5.857,2.7A6.938,6.938,0,0,0,31.588,55a9.364,9.364,0,0,0,4.755-1.426,16.032,16.032,0,0,0,6.141-7.119C45.483,39.971,44.162,32.946,39.539,30.815Zm-24.19,2.828a.727.727,0,0,1-.05-.178,2.344,2.344,0,0,1,.229-1.3,2.055,2.055,0,0,1,.981-1.089l4.676,2.558a18.1,18.1,0,0,0-1.328,2.378c-.01.025-.019.049-.031.074Zm6.274,3.194c2.549-5.52,7.591-8.64,11.243-6.956l1.435.664a10.587,10.587,0,0,0-2.445,1.065,16.028,16.028,0,0,0-6.141,7.117,16.049,16.049,0,0,0-1.437,9.292,10.636,10.636,0,0,0,.778,2.55l-1.426-.661C19.97,48.216,19.074,42.352,21.624,36.836Zm19.1,8.817a14.1,14.1,0,0,1-5.368,6.26,6.268,6.268,0,0,1-5.875.695A6.273,6.273,0,0,1,26.2,47.682a14.09,14.09,0,0,1,1.284-8.147,14.084,14.084,0,0,1,5.368-6.26,7.458,7.458,0,0,1,3.76-1.147,5.016,5.016,0,0,1,2.11.451C42.373,34.265,43.269,40.129,40.719,45.654Z" fill="#48c9b0"/>
  <path id="Caminho_2" data-name="Caminho 2" d="M16.141,42.419a5.835,5.835,0,0,1-4.916.2c-2.111-.975-3.4-3.469-3.436-6.671a.972.972,0,0,0-.972-.96H6.8a.972.972,0,0,0-.96.985,11.5,11.5,0,0,0,.975,4.61l-1.452-.669a6.277,6.277,0,0,1-3.281-4.927,14.1,14.1,0,0,1,1.285-8.147,14.092,14.092,0,0,1,5.368-6.26,6.281,6.281,0,0,1,5.874-.7.585.585,0,0,0,.06.026l1.409.648a14.681,14.681,0,0,0-8.619,8.169,17.873,17.873,0,0,0-1.273,3.815.972.972,0,0,0,.749,1.153.994.994,0,0,0,.2.021.971.971,0,0,0,.949-.771,16.006,16.006,0,0,1,1.136-3.4c2.549-5.519,7.592-8.646,11.243-6.955a6.373,6.373,0,0,1,3.325,5.2.973.973,0,0,0,1.925-.278,8.343,8.343,0,0,0-4.434-6.692l-5.856-2.706a.667.667,0,0,0-.065-.027,8.169,8.169,0,0,0-7.619.817A16.035,16.035,0,0,0,1.607,26.02c-3,6.5-1.679,13.524,2.945,15.66l5.858,2.7a6.917,6.917,0,0,0,2.916.625,8.879,8.879,0,0,0,3.61-.813.973.973,0,1,0-.795-1.776Z" fill="#48c9b0"/>
  <path id="Caminho_3" data-name="Caminho 3" d="M45.7,36.009a.973.973,0,0,0,.023,1.945h.03a7.072,7.072,0,1,0-6.662-9.89.973.973,0,1,0,1.783.778,5.127,5.127,0,1,1,4.831,7.169Z" fill="#48c9b0"/>
  <path id="Caminho_4" data-name="Caminho 4" d="M60.576,4.821A10.4,10.4,0,0,0,51.773,0H39.487A10.446,10.446,0,0,0,30.01,14.835l3.279,7.078a15.336,15.336,0,0,0-1.835,3.305.972.972,0,0,0,1.8.724A13.4,13.4,0,0,1,35.124,22.7a.43.43,0,0,0,.03-.039,13.172,13.172,0,0,1,3.05-2.825c.008,0,.012-.01.02-.013A13.272,13.272,0,1,1,52.282,42.333H45.627a.972.972,0,0,0,0,1.945h6.91a.968.968,0,0,0,.476-.13,15.171,15.171,0,0,0,4.907-22.121l3.332-7.194a10.4,10.4,0,0,0-.676-10.013Zm-1.089,9.2L56.544,20.37a15.289,15.289,0,0,0-1.9-1.669L57.287,13A6.073,6.073,0,0,0,51.773,4.37H50.554a.972.972,0,0,0,0,1.945h1.215a4.129,4.129,0,0,1,3.749,5.866L53,17.62a15.2,15.2,0,0,0-14.766-.066l-2.49-5.373a4.128,4.128,0,0,1,3.747-5.866h8.157a.972.972,0,1,0,0-1.945H39.487A6.076,6.076,0,0,0,33.975,13l2.6,5.613a15.1,15.1,0,0,0-1.9,1.656l-2.9-6.252A8.5,8.5,0,0,1,39.487,1.942H51.773a8.5,8.5,0,0,1,7.714,12.072Z" fill="#48c9b0"/>
</svg>
