<svg xmlns="http://www.w3.org/2000/svg" width="56" height="56" viewBox="0 0 56 56">
  <path id="service-icon_2-6" d="M55.1,50.581H43.757l5.8-20.605L55.5,27a.9.9,0,0,0,.4-1.212L54.1,22.176a.907.907,0,0,0-.556-.463.888.888,0,0,0-.717.093L44.008,27.1H33.419a.9.9,0,0,0-.9.9v3.613a.9.9,0,0,0,.9.9h9.025L37.364,50.581H36.129a3.619,3.619,0,0,0-2.843-3.531L31.6,37.774a.918.918,0,0,0-.08-.243l-5.252-10.5.092-.278c.1-.294.187-.592.276-.889A3.859,3.859,0,0,0,30.26,25.6l5.68-3.549a2.647,2.647,0,0,0-1.4-4.891,4.084,4.084,0,0,0-2.272.688L28.5,20.359l-.6-1.2q.1-1.257.1-2.525a3.953,3.953,0,0,0-.855-2.459,6.334,6.334,0,0,0,4.468-6.044V6.323a6.323,6.323,0,0,0-12.645,0V8.129A6.3,6.3,0,0,0,20.9,12.67a4.513,4.513,0,0,0-2.612,1.021l-4.416,3.68a.906.906,0,0,0-.278.98l3.254,9.762c.005.016.014.03.019.045l-2.253,9.011A29.171,29.171,0,0,0,6.392,40.34L4.068,41.668a.9.9,0,0,0-.455.784v5.419a.9.9,0,0,0,.9.9h.9A3.619,3.619,0,0,0,8.96,45.885l10.226-2.557a.9.9,0,0,0,.638-.59l2.2-6.591,3.272,3.927A14.562,14.562,0,0,0,28,48.167v2.413H.9a.9.9,0,0,0-.9.9V55.1a.9.9,0,0,0,.9.9H55.1a.9.9,0,0,0,.9-.9V51.484A.9.9,0,0,0,55.1,50.581ZM40.864,54.194H38.224l6.1-21.694a.9.9,0,0,0,.336-.08l2.706-1.353ZM34.323,28.9h9.935a.9.9,0,0,0,.465-.129l8.2-4.917.965,1.933-9.84,4.92H34.323Zm-6.4-6.352a.9.9,0,0,0,.733-.122l4.615-3.076a2.277,2.277,0,0,1,1.269-.385.841.841,0,0,1,.445,1.554L29.3,24.07a2.139,2.139,0,0,1-2.183.008c.144-.6.266-1.2.375-1.806A.9.9,0,0,0,27.918,22.551ZM25.29,12.645a4.47,4.47,0,0,1-1.582-.3l1.4-1.867a.9.9,0,0,0,.181-.542V7.226h4.516v.9A4.521,4.521,0,0,1,25.29,12.645ZM20.774,8.129V6.323a4.516,4.516,0,0,1,8.941-.9H24.387a.9.9,0,0,0-.9.9V9.635l-1.311,1.748A4.492,4.492,0,0,1,20.774,8.129Zm4.516,6.323a.9.9,0,0,0,.265.639,2.168,2.168,0,0,1,.639,1.542A30.09,30.09,0,0,1,24.671,26.1L21.5,25.643c-.051-.264-.093-.529-.166-.788l-1.305-4.566,2.8-1.681a3.228,3.228,0,0,0,1.558-2.753,3.177,3.177,0,0,0-.413-1.544A6.317,6.317,0,0,0,25.29,14.452ZM15.5,18.364l3.942-3.286a2.709,2.709,0,0,1,1.732-.626,1.4,1.4,0,0,1,.722,2.608L18.5,19.1a.9.9,0,0,0-.4,1.022l1.495,5.231a7.227,7.227,0,0,1,.277,1.978.672.672,0,0,1-1.309.211ZM5.419,46.968V42.975l.472-.269,1.316,2.633A1.8,1.8,0,0,1,5.419,46.968ZM27.1,39.742a.908.908,0,0,0-.209-.579L22.4,33.777l-1.777-2.665-1.5,1,1.562,2.342-2.413,7.239L8.614,44.109,7.467,41.815a27.419,27.419,0,0,1,8.066-3,.9.9,0,0,0,.7-.667l2.124-8.5a2.445,2.445,0,0,0,.844.154,2.474,2.474,0,0,0,2.461-2.315l3.033.433,5.15,10.3,1.59,8.743H29.376A12.726,12.726,0,0,1,27.1,39.742Zm2.71,9.032h2.71a1.808,1.808,0,0,1,1.806,1.806H29.806Zm-28,3.613h35.05l-.508,1.806H1.806Zm52.387,1.806H42.741l.508-1.806H54.194Z" fill="#48c9b0"/>
</svg>
