<svg xmlns="http://www.w3.org/2000/svg" width="55" height="55" viewBox="0 0 55 55">
  <path id="service-icon_2-5" d="M47.194,19.516a2.607,2.607,0,0,0-2.264,3.9l2.973,5.2v5.483a9.149,9.149,0,0,0-1.774-1.743V30.9a6.945,6.945,0,0,0-6.944-6.944H35.693l-4.645-2.322V20.09a8.22,8.22,0,0,0,2.51-3.075,7.219,7.219,0,0,0,5.473,2.5h3.548a.887.887,0,0,0,.4-1.681,5.5,5.5,0,0,1-3.058-4.947V6.21A6.2,6.2,0,0,0,29.191,1.959a7.97,7.97,0,0,0-9.675,7.8v3.548a.887.887,0,0,0,.355.71.875.875,0,0,0,.673.145,9.048,9.048,0,0,0,3.407,5.921v1.547l-4.645,2.322H15.815A6.945,6.945,0,0,0,8.871,30.9v1.467A9.151,9.151,0,0,0,7.1,34.106V28.623l2.975-5.207a2.607,2.607,0,0,0-2.266-3.9,5.112,5.112,0,0,0-4.467,2.628A26.6,26.6,0,0,0,0,35.035v6.443a4.65,4.65,0,0,0,7.94,3.288l8.528-8.528,1.654,4.968a9.884,9.884,0,0,1-2.388,10.113l-2.167,2.167A.887.887,0,0,0,14.194,55H40.806a.887.887,0,0,0,.627-1.514l-2.167-2.167a9.884,9.884,0,0,1-2.388-10.113l1.654-4.968,8.528,8.528A4.65,4.65,0,0,0,55,41.478V35.035a26.6,26.6,0,0,0-3.34-12.889,5.113,5.113,0,0,0-4.466-2.629Zm-.723,3.021a.833.833,0,0,1,.723-1.246,3.336,3.336,0,0,1,2.917,1.716A24.706,24.706,0,0,1,52.044,27.5H49.3ZM33.71,1.774A4.441,4.441,0,0,1,38.145,6.21v6.678a7.274,7.274,0,0,0,1.838,4.854h-.951a5.453,5.453,0,0,1-4.743-2.75c.066-.272.123-.549.168-.832a.844.844,0,0,0,.139.034.887.887,0,0,0,.887-.887V9.758a7.984,7.984,0,0,0-4.395-7.122A4.405,4.405,0,0,1,33.71,1.774ZM21.29,9.758a6.21,6.21,0,0,1,12.419,0v1.1l-2.867-3.44a.887.887,0,0,0-1.523.287,4.524,4.524,0,0,1-2.987,2.9L21.29,12.114Zm.976,3.917L26.847,12.3A6.3,6.3,0,0,0,30.37,9.614l2.452,2.942c-.06,3.849-2.422,6.959-5.322,6.959C24.919,19.516,22.71,17,22.266,13.675Zm2.969,9.3a.887.887,0,0,0,.491-.8V21a5.531,5.531,0,0,0,3.548,0v1.18a.887.887,0,0,0,.491.794l1.693.846,1.2,7.231H22.338l1.2-7.231Zm-20.344.035A3.336,3.336,0,0,1,7.806,21.29a.833.833,0,0,1,.723,1.246L5.7,27.5H2.956a24.7,24.7,0,0,1,1.936-4.493Zm1.794,20.5a2.877,2.877,0,0,1-4.911-2.034V35.035a24.758,24.758,0,0,1,.692-5.761H5.323v8.871a.887.887,0,0,0,.779.881.9.9,0,0,0,.969-.665l.112-.444a7.368,7.368,0,0,1,3.068-4.355.887.887,0,0,0,.395-.74V30.9a5.17,5.17,0,0,1,5.17-5.17h2.54l-2.294,8.411Zm31.327,9.061.653.653H16.335l.653-.653A11.5,11.5,0,0,0,20.306,42.9a22.577,22.577,0,0,1,14.389,0,11.5,11.5,0,0,0,3.318,9.676ZM35.195,40.641c-.056.168-.1.338-.146.507a24.361,24.361,0,0,0-15.1,0c-.048-.169-.089-.34-.146-.507l-2.023-6.07,2.484-9.116,1.313-.656-1.165,6.99a.887.887,0,0,0,.876,1.034H33.71a.887.887,0,0,0,.875-1.034L33.42,24.8l1.313.656,2.484,9.116Zm18.031.837a2.877,2.877,0,0,1-4.911,2.034l-9.371-9.376-2.3-8.411h2.54a5.17,5.17,0,0,1,5.17,5.17v1.927a.887.887,0,0,0,.395.738,7.368,7.368,0,0,1,3.065,4.355l.112.443a.887.887,0,0,0,1.751-.214V29.274h2.857a24.757,24.757,0,0,1,.692,5.761Z" fill="#48c9b0"/>
</svg>
