<svg xmlns="http://www.w3.org/2000/svg" width="51.071" height="55" viewBox="0 0 51.071 55">
  <path id="service-icon_2-2" d="M16.7,27.5a.982.982,0,0,0-.982.982V49.107H.982a.982.982,0,0,0,0,1.964H15.714v1.964H12.768a.982.982,0,1,0,0,1.964H30.446a.982.982,0,1,0,0-1.964H27.5V45.179H41.25v7.857h-.982a.982.982,0,1,0,0,1.964h7.857a.982.982,0,0,0,0-1.964h-.982V45.179h2.946a.983.983,0,0,0,.982-.982V40.268a.983.983,0,0,0-.982-.982H48.926a2.913,2.913,0,0,0,.181-.982,2.95,2.95,0,0,0-2.946-2.946H27.5V28.482a.982.982,0,0,0-.982-.982h-.982V2.8L33.8,2.216a3.862,3.862,0,0,0-.41,1.713,3.932,3.932,0,0,0,3.929,3.929,3.885,3.885,0,0,0,1.964-.546v8.664l-8.851,5.28a.982.982,0,0,0,.5,1.827.973.973,0,0,0,.5-.139l8.78-5.237,5.7,4.048a.984.984,0,0,0,1.369-.232.983.983,0,0,0-.23-1.369L41.25,16.025V3.929A3.933,3.933,0,0,0,37.321,0c-.018,0-.033.006-.051.006l-.018,0L9.753,1.968c-.008,0-.016.006-.024.006A3.928,3.928,0,0,0,5.893,5.893V27.828L.682,29.511A.983.983,0,0,0,0,30.446V46.161a.983.983,0,0,0,.982.982H12.768a.983.983,0,0,0,.982-.982V30.446a.986.986,0,0,0-.662-.929l-5.231-1.8V9.275a3.885,3.885,0,0,0,1.964.546A3.926,3.926,0,0,0,13.078,3.7l4.6-.326V27.5Zm.982,25.536V29.464h7.857V53.036Zm27.5,0H43.214V45.179h1.964Zm3.929-9.821H27.5V41.25H49.107Zm-2.946-5.893a.982.982,0,1,1,0,1.964H27.5V37.321ZM39.286,3.929a1.964,1.964,0,1,1-1.98-1.96l.022,0A1.965,1.965,0,0,1,39.286,3.929Zm-27.5,35.385a.752.752,0,0,0-.132-.028H2.465a.961.961,0,0,0-.5.157V35.2a.961.961,0,0,0,.5.157h9.189a.743.743,0,0,0,.132-.028ZM1.964,45.179V41.093a.962.962,0,0,0,.5.157h9.189a.743.743,0,0,0,.132-.028v3.956ZM11.786,33.42a.743.743,0,0,0-.132-.028H2.465a.961.961,0,0,0-.5.157V31.161l5.088-1.644,4.734,1.63ZM9.821,7.857a1.964,1.964,0,1,1,1.964-1.964A1.966,1.966,0,0,1,9.821,7.857Zm9.821-4.626,3.928-.289V27.5H19.643Z" fill="#48c9b0"/>
</svg>
