<svg xmlns="http://www.w3.org/2000/svg" width="55" height="55" viewBox="0 0 55 55">
  <path id="service-icon_2-4" d="M53.939,38.945l-.713-1.069v-2.3A12.634,12.634,0,0,0,51.9,29.96a11.851,11.851,0,0,0-4.507-4.866,8.027,8.027,0,0,0-4.129-1.143,5.325,5.325,0,0,0-2.228.495,2.625,2.625,0,0,1-1.053-1.609l2.037-.555a10.415,10.415,0,0,0,7.657-10.025,8.746,8.746,0,0,0-16.339-4.3L32.8,8.89a2.67,2.67,0,0,1-1.665,1.261l-.955.24a2.372,2.372,0,0,0-1.1,3.978l.064.065-.479,1.436a5.468,5.468,0,0,0,4.058,7.075,3.41,3.41,0,0,1-.9,1.633l-1.147,1.147h-.307a3.81,3.81,0,0,0-1.778.443l-.093-.047a12.373,12.373,0,0,0-10.729-.063c-.013-.181-.032-.362-.032-.543V13.575l.88-1.32a5.316,5.316,0,0,0,.712-1.609H21.29v3.548a1.776,1.776,0,0,0,1.774,1.774h1.774a1.776,1.776,0,0,0,1.774-1.774V1.774A1.776,1.776,0,0,0,24.839,0H23.065A1.776,1.776,0,0,0,21.29,1.774V5.322H19.516V3.548a1.776,1.776,0,0,0-1.774-1.774A3.553,3.553,0,0,0,14.518,3.84a2.653,2.653,0,0,0-1.212-.292H9.758a2.658,2.658,0,0,0-2.5,1.774H5.323V1.774A1.776,1.776,0,0,0,3.548,0H1.774A1.776,1.776,0,0,0,0,1.774V14.193a1.776,1.776,0,0,0,1.774,1.774H3.548a1.776,1.776,0,0,0,1.774-1.774V10.645H7.185a5.278,5.278,0,0,0,1.472,2.814l.215.215V30.657a7.14,7.14,0,0,0,6.508,7.073l4.813.4a7.524,7.524,0,0,0,5.957.513l.319-.107a15.253,15.253,0,0,0,.879,2.177,9.85,9.85,0,0,1,1.04,4.4v6.26A3.633,3.633,0,0,0,32.015,55a8.092,8.092,0,0,0,3.606-.852l3.758-1.879L50.94,48.19A6.1,6.1,0,0,0,55,42.45,6.3,6.3,0,0,0,53.939,38.945ZM23.065,1.774h1.774l0,12.419H23.065ZM21.29,7.1V8.871H19.516V7.1ZM40.969,5.322A6.943,6.943,0,0,1,47.9,12.257a8.635,8.635,0,0,1-6.349,8.313l-1.635.446V19l1.85-1.851a2.769,2.769,0,0,0-1.877-4.726A5.314,5.314,0,0,0,36.28,7.906L35.7,7.711A7.006,7.006,0,0,1,40.969,5.322ZM31.935,26.98l1.147-1.147a5.205,5.205,0,0,0,1.432-2.769h1.857V21.29H33.853a3.693,3.693,0,0,1-3.5-4.86l.827-2.477-.84-.839a.6.6,0,0,1-.176-.423.6.6,0,0,1,.452-.579l.954-.24a4.453,4.453,0,0,0,2.776-2.1l.307-.538,1.068.356a3.544,3.544,0,0,1,2.426,3.367v1.238h1.667a.995.995,0,0,1,.7,1.7l-2.37,2.37v4.019a4.4,4.4,0,0,0,1.379,3.211,5.334,5.334,0,0,0-.773.96l-2.127,3.4a2.538,2.538,0,0,1-4.689-1.345ZM8.871,6.21a.887.887,0,0,1,.887-.887h3.548a.887.887,0,0,1,.887.887V7.984a.887.887,0,0,1-.887.887H9.758a.887.887,0,0,1-.887-.887Zm-7.1,7.984V1.774H3.548l0,12.419ZM5.323,7.1H7.1V8.871H5.323ZM25.589,36.959A5.811,5.811,0,0,1,19.1,34.934l-.652-.87-1.419,1.065.652.87c.041.054.088.1.13.153l-2.289-.191a5.356,5.356,0,0,1-4.881-5.3V12.939L9.911,12.2a3.513,3.513,0,0,1-.934-1.69,2.618,2.618,0,0,0,.782.13h3.548a2.664,2.664,0,0,0,2.661-2.661V5.322a1.776,1.776,0,0,1,1.774-1.774V9.3a3.533,3.533,0,0,1-.6,1.968l-1.178,1.767V25.515a9.352,9.352,0,0,0,.98,4.155l1.587-.794a7.494,7.494,0,0,1-.409-1.022l.293-.146a10.567,10.567,0,0,1,8.749-.23,3.876,3.876,0,0,0-.344.649,15.249,15.249,0,0,0-.8,8.687ZM27.5,33.838a13.523,13.523,0,0,1,.973-5.049,2.023,2.023,0,0,1,1.688-1.256v.979A4.311,4.311,0,0,0,38.128,30.8l2.126-3.4a3.529,3.529,0,0,1,3.01-1.668,6.264,6.264,0,0,1,3.216.891l.088.053a8.522,8.522,0,0,0-7.536,8.463A7.811,7.811,0,0,0,42.806,41.8l.037.022-4.894,4.2-1.833-.61a3.16,3.16,0,0,0-3.829,1.583l-.127.254-1.769.883c-.081.041-.154.09-.231.137v-3.15a11.66,11.66,0,0,0-1.226-5.192A13.687,13.687,0,0,1,27.5,33.838ZM50.35,46.516l-11.613,4.1-3.91,1.946a6.305,6.305,0,0,1-2.812.664,1.854,1.854,0,0,1-.829-3.513l2.3-1.148.391-.782a1.379,1.379,0,0,1,1.24-.766,1.358,1.358,0,0,1,.438.071l2.788.93,7.525-6.45-2.148-1.289a6.03,6.03,0,0,1-2.912-5.144,6.745,6.745,0,0,1,6.746-6.746H48.67a10.126,10.126,0,0,1,1.644,2.368,10.84,10.84,0,0,1,1.138,4.824v2.835l1.011,1.516a4.529,4.529,0,0,1,.763,2.522A4.318,4.318,0,0,1,50.35,46.516Z" fill="#48c9b0"/>
</svg>
