<svg id="service-icon_2-1" xmlns="http://www.w3.org/2000/svg" width="53.023" height="55" viewBox="0 0 53.023 55">
  <path id="Caminho_3" data-name="Caminho 3" d="M42.789,18.016a.914.914,0,0,0,1.293,0l6.369-6.369a4.681,4.681,0,1,0-6.619-6.619l-.4.4-.4-.4a4.681,4.681,0,1,0-6.619,6.619Zm-5.076-11.7a2.856,2.856,0,0,1,4.034,0l1.042,1.042a.914.914,0,0,0,1.293,0l1.042-1.042a2.852,2.852,0,1,1,4.034,4.034l-5.723,5.722-5.722-5.722a2.851,2.851,0,0,1,0-4.034Z" fill="#48c9b0"/>
  <path id="Caminho_4" data-name="Caminho 4" d="M52.008,53.029A25.66,25.66,0,0,1,37.934,50.4a.911.911,0,0,0-.693-.088c-.1.026-9.928,2.661-17.845.9-4.936-1.1-9.591-4.574-12.99-7.112-.457-.341-.889-.664-1.3-.961A10.387,10.387,0,0,0,2.9,42.1c-.349-.133-.827-.317-.93-.381a.358.358,0,0,1-.138-.289V39.313C1.872,37.637,8.9,11.836,9.993,8.553A.707.707,0,0,1,10.2,8.4L24.115,2.048l4.5,5.856a.806.806,0,0,1-.049,1.008l-4.445,4.983A.792.792,0,0,1,23.034,14l-1.8-1.657a.921.921,0,0,0-.791-.206.959.959,0,0,0-.663.506c-.15.3-1.511.658-2.9.669l-.452-.046a.9.9,0,0,0-.891.465.914.914,0,0,0,.075,1c.386.5.687.9.857,1.13l.89,15.122a6.655,6.655,0,0,1-1.182,2.88.914.914,0,0,0,.275,1.786c1.037,0,1.918-1.362,2.625-4.022a11.186,11.186,0,0,1,14.115.117c2.31,2.318,2.453,3.858,2.457,3.926a.914.914,0,0,0,1.829-.02c0-.21-.076-2.014-2.443-4.62,2.232-2.743,4.772-4.324,7.571-4.668,4.825-.594,8.88,2.65,8.921,2.683a.914.914,0,0,0,1.157-1.416c-.189-.154-4.678-3.766-10.283-3.084-3.276.4-6.217,2.169-8.751,5.27A13,13,0,0,0,19.1,29.394l-.818-13.906a.908.908,0,0,0-.133-.424,6.008,6.008,0,0,0,2.5-.775l1.178,1.086a2.621,2.621,0,0,0,3.657-.263l4.445-4.983a2.65,2.65,0,0,0,.149-3.32L25.121.357a.914.914,0,0,0-1.1-.274L9.453,6.734a2.223,2.223,0,0,0-1.179,1.2C7.757,9.493,0,37.155,0,39.311v2.122a2.182,2.182,0,0,0,.838,1.728,5.809,5.809,0,0,0,1.4.649,9.913,9.913,0,0,1,1.788.809c.4.294.829.613,1.281.951C8.844,48.208,13.681,51.82,19,53c7.572,1.683,16.461-.352,18.366-.832A27.4,27.4,0,0,0,49.417,55a25.159,25.159,0,0,0,2.793-.154.914.914,0,1,0-.2-1.817Z" fill="#48c9b0"/>
  <path id="Caminho_5" data-name="Caminho 5" d="M47.533,41.952a.914.914,0,0,0-1.823.1c0,.611.451,2.678,6.249,3.644a.928.928,0,0,0,.151.013.914.914,0,0,0,.149-1.816C48.2,43.218,47.587,42.074,47.533,41.952Z" fill="#48c9b0"/>
  <path id="Caminho_6" data-name="Caminho 6" d="M29.977,46.644c-11.974,2.565-17.1-5.628-17.31-5.978a.914.914,0,0,0-1.567.943,15.691,15.691,0,0,0,4.626,4.523,17.733,17.733,0,0,0,9.832,2.829,22.894,22.894,0,0,0,4.8-.528.914.914,0,0,0-.383-1.788Z" fill="#48c9b0"/>
</svg>
