<?xml version="1.0" encoding="UTF-8"?>
<svg xmlns="http://www.w3.org/2000/svg" viewBox="0 0 500 500">
  <defs>
    <style>
      .cls-1 {
        fill: #fff;
      }

      .cls-2 {
        fill: #f1c40f;
      }

      .cls-2, .cls-3 {
        font-family: FranklinGothic-HeavyItalic, 'Franklin Gothic Heavy';
        font-size: 90px;
        font-style: italic;
        font-weight: 800;
      }

      .cls-4 {
        fill: #34495e;
      }

      .cls-5 {
        letter-spacing: -.03em;
      }

      .cls-3 {
        fill: #48c9b0;
      }

      .cls-6 {
        fill: #f7f7f7;
      }
    </style>
  </defs>
  <g id="BACKGROUND">
    <rect class="cls-6" width="500" height="500"/>
  </g>
  <g id="OBJECTS">
    <g>
      <path class="cls-1" d="m236.76,360.26c-3.87-.03-6.88-2.41-8.04-6.35-1.07-3.62-2.09-7.3-3.08-10.86-.43-1.54-.86-3.07-1.29-4.61-3.8-13.52-7.6-27.03-11.4-40.55-4.47,8.49-8.93,16.98-13.38,25.48-.82,1.57-2.53,4.83-6.51,5.59-.59.11-1.18.17-1.76.17-4.01,0-7.2-2.74-8.32-7.14l-.86-3.38c-2.26-8.87-4.59-18.04-6.73-27.11-.1-.41-.18-.65-.23-.79-.12-.02-.3-.03-.58-.03h-.11c-5.54.08-11.02.09-15.64.09h-10.9c-3.41,0-6.81,0-10.22.02h-.13c-5,0-8.28-2.21-9.73-6.57-.1-.31-.15-.63-.15-.95v-1.92c0-.32.05-.64.15-.95,1.45-4.36,4.73-6.57,9.76-6.57h.1c6.35.04,12.71.05,19.06.05h23.42c6.02,0,8.67,2.06,10.13,7.88,0,0,3.33,13.2,3.86,15.32l10.65-20.19.95-1.81c.5-.96,1-1.92,1.51-2.87,1.27-2.37,3.45-5.51,7.8-5.51.46,0,.95.04,1.45.1,5.51.76,6.85,5.57,7.3,7.16,2.49,8.9,5,17.81,7.5,26.71,0,0,1.67,5.95,1.93,6.85,2.24-20.39,4.48-40.79,6.7-61.18.98-8.98,1.95-17.96,2.92-26.95.69-6.36,2.09-19.32,2.09-19.32.12-1.1.24-2.24.5-3.42.85-3.85,4.1-6.6,7.91-6.7h.23c4.1,0,7.57,2.77,8.25,6.6.8,4.51,1.43,9.1,2.05,13.53l.37,2.69c2,14.3,3.98,28.59,5.97,42.89l1.04,7.47.44,3.11c.46,3.28.94,6.67,1.34,10.03,3.69-.05,7.57-.07,12.21-.07,3.5,0,7,.01,10.49.03h2.33c5.5.03,9.05,2.87,9.5,7.62.22,2.37-.44,4.61-1.87,6.31-1.37,1.63-3.33,2.62-5.54,2.81-1.98.16-3.96.18-5.64.18h-3.47c-3.96,0-7.93,0-11.89,0s-7.93,0-11.89,0c-6.33-.01-9.28-2.53-10.16-8.69-.82-5.71-1.63-11.48-2.41-17.19,0,0-5.07,46.19-6.05,55.14-.4,3.64-.79,7.29-1.19,10.93-.63,5.82-1.26,11.64-1.91,17.45l-.03.32c-.13,1.24-.29,2.65-.88,4.04-1.38,3.25-4.23,5.11-7.81,5.11h-.09Z"/>
      <path class="cls-4" d="m130.71,281.35c1.12-3.38,3.54-4.54,6.99-4.52,14.17.08,28.33.03,42.5.04,4.64,0,6.11,1.17,7.23,5.62,1.73,6.89,3.48,13.77,5.21,20.66.15.61.19,1.25.78,1.83,4.71-8.93,9.4-17.81,14.08-26.7.82-1.55,1.62-3.11,2.45-4.66,1.7-3.17,3.38-4.24,6.19-3.85,2.89.4,4.11,2.45,4.82,4.99,2.88,10.3,5.78,20.59,8.67,30.88,1.52,5.41,3.04,10.82,5.03,16.2.39-3.36.8-6.72,1.17-10.08,2.38-21.7,4.76-43.4,7.13-65.1,1.67-15.34,3.32-30.69,4.98-46.03.12-1.11.23-2.23.47-3.33.56-2.53,2.64-4.28,5.06-4.35,2.58-.07,4.99,1.53,5.45,4.12.95,5.35,1.65,10.74,2.4,16.12,2.35,16.78,4.67,33.57,7,50.35.63,4.51,1.3,9.02,1.82,13.55.19,1.64.71,2.22,2.5,2.19,8.48-.12,16.97-.07,25.45-.04,3.95.01,6.23,1.77,6.52,4.89.29,3.05-1.6,5.6-4.67,5.85-2.94.24-5.91.16-8.87.17-7.92.02-15.85.01-23.77,0-4.8,0-6.52-1.37-7.2-6.11-1.73-12.03-3.35-24.07-5.02-36.1-.17-1.25-.39-2.5-.85-3.74-1.15,10.54-2.31,21.08-3.46,31.63-1.69,15.42-3.39,30.84-5.08,46.26-1.04,9.46-2.05,18.92-3.1,28.38-.13,1.18-.23,2.43-.69,3.51-.93,2.17-2.7,3.3-5.11,3.28-2.46-.02-4.39-1.49-5.19-4.2-1.51-5.13-2.91-10.29-4.36-15.43-4.32-15.36-8.64-30.72-12.96-46.08-.1-.36-.24-.72-.49-1.47-.59,1.03-1.03,1.73-1.41,2.45-5.16,9.82-10.33,19.63-15.47,29.46-.99,1.89-2.13,3.6-4.42,4.04-3.17.61-5.69-1.17-6.61-4.76-2.58-10.13-5.18-20.26-7.58-30.44-.55-2.33-1.33-3.17-3.87-3.14-12.24.17-24.49.02-36.73.11-3.45.02-5.87-1.14-6.99-4.52v-1.92Z"/>
      <path class="cls-1" d="m356.67,293.18c-1.13,0-2.26,0-3.39-.04-5.33-.13-8.95-3.47-9.01-8.31-.03-2.3.75-4.33,2.26-5.88,1.67-1.71,4.05-2.64,6.88-2.67,2.88-.03,5.75-.05,8.63-.05s5.63.02,8.45.05c5.25.07,8.99,3.47,9.09,8.29.1,4.86-3.64,8.4-9.1,8.59h-8.49c-.88,0-1.75,0-2.63.01-.89,0-1.78.01-2.67.01Z"/>
      <path class="cls-4" d="m361.97,290.16c-2.87,0-5.75.05-8.62-.01-3.71-.09-6.04-2.19-6.09-5.36-.05-3.26,2.34-5.47,6.17-5.51,5.67-.06,11.34-.07,17.01,0,3.68.05,6.06,2.21,6.13,5.35.06,3.19-2.41,5.4-6.21,5.53-.16,0-.32,0-.48,0-2.64,0-5.27,0-7.91,0Z"/>
      <path class="cls-1" d="m320.33,293.18c-1.03,0-2.06,0-3.09-.03-5.47-.1-9.19-3.45-9.27-8.32-.04-2.24.76-4.31,2.24-5.83,1.66-1.71,4.12-2.67,6.91-2.71,2.62-.03,5.25-.05,7.88-.05s5.33.02,8,.05c5.44.06,9.21,3.56,9.16,8.51-.04,4.9-3.76,8.26-9.24,8.36-1,.02-2.01.03-3.01.03-.79,0-3.93-.01-4.71-.01s-4.06.02-4.87.02Z"/>
      <path class="cls-4" d="m325.21,290.16c-2.63,0-5.27.04-7.9,0-3.86-.07-6.27-2.16-6.33-5.37-.05-3.22,2.37-5.45,6.19-5.49,5.27-.07,10.54-.06,15.8,0,3.83.04,6.22,2.23,6.2,5.48-.03,3.23-2.43,5.32-6.3,5.39-2.55.05-5.11,0-7.66,0Z"/>
    </g>
    <text class="cls-3" transform="translate(44.39 267.87)"><tspan x="0" y="0">VI</tspan><tspan class="cls-5" x="82.44" y="0">V</tspan><tspan x="134.34" y="0">A</tspan></text>
    <text class="cls-2" transform="translate(276.12 270.22)"><tspan x="0" y="0">BEM</tspan></text>
  </g>
</svg>