<svg xmlns="http://www.w3.org/2000/svg" viewBox="0 0 419.07 164.41"><defs><style>.cls-1{fill:#34495e;}.cls-2,.cls-4{font-size:90px;font-family:FranklinGothic-HeavyItalic, Franklin Gothic Heavy;font-weight:800;font-style:italic;}.cls-2{fill:#48c9b0;}.cls-3{letter-spacing:-0.03em;}.cls-4{fill:#f1c40f;}</style></defs><g id="Camada_2" data-name="Camada 2"><g id="OBJECTS"><path class="cls-1" d="M86.32,88.5c1.12-3.38,3.54-4.54,7-4.52,14.17.08,28.34,0,42.5,0,4.64,0,6.11,1.17,7.23,5.63q2.6,10.33,5.21,20.66a3.24,3.24,0,0,0,.78,1.83q7.07-13.39,14.08-26.7c.82-1.55,1.62-3.11,2.45-4.66,1.7-3.17,3.38-4.24,6.19-3.85s4.11,2.45,4.82,5q4.32,15.45,8.67,30.88c1.52,5.41,3,10.82,5,16.2.39-3.36.8-6.71,1.17-10.08q3.57-32.55,7.13-65.1,2.51-23,5-46A30.67,30.67,0,0,1,204,4.45,5.4,5.4,0,0,1,209.08.1a5.23,5.23,0,0,1,5.45,4.13c.95,5.35,1.65,10.74,2.4,16.12q3.52,25.17,7,50.35c.62,4.52,1.29,9,1.82,13.55.19,1.64.71,2.22,2.5,2.19,8.48-.12,17-.07,25.45,0,4,0,6.22,1.77,6.52,4.89a5.11,5.11,0,0,1-4.67,5.85c-2.95.24-5.92.16-8.88.16q-11.88,0-23.77,0c-4.79,0-6.51-1.37-7.19-6.11-1.73-12-3.36-24.07-5-36.1a17.12,17.12,0,0,0-.85-3.74Q208.12,67.16,206.38,83q-2.53,23.15-5.08,46.27c-1,9.46-2.05,18.92-3.1,28.38a12.36,12.36,0,0,1-.69,3.5,5.14,5.14,0,0,1-5.11,3.29,5.32,5.32,0,0,1-5.19-4.2c-1.51-5.13-2.91-10.29-4.36-15.44l-13-46.08c-.1-.37-.24-.72-.49-1.47-.59,1-1,1.72-1.4,2.45q-7.75,14.72-15.48,29.46c-1,1.89-2.13,3.6-4.41,4-3.17.61-5.7-1.16-6.61-4.76-2.58-10.13-5.18-20.26-7.58-30.43-.55-2.34-1.33-3.17-3.87-3.14-12.25.17-24.49,0-36.74.11-3.45,0-5.87-1.14-7-4.52Z"/><path class="cls-1" d="M317.58,97.31c-2.87,0-5.75,0-8.62,0-3.71-.09-6-2.18-6.09-5.35s2.34-5.47,6.17-5.51c5.67-.06,11.34-.07,17,0,3.68,0,6.06,2.21,6.12,5.35s-2.41,5.39-6.2,5.53h-8.39Z"/><path class="cls-1" d="M280.82,97.31c-2.63,0-5.27,0-7.9,0-3.86-.08-6.28-2.16-6.33-5.38s2.38-5.44,6.19-5.49c5.27-.07,10.54-.06,15.81,0,3.82,0,6.22,2.23,6.19,5.48s-2.43,5.32-6.3,5.39C285.93,97.35,283.38,97.31,280.82,97.31Z"/><text class="cls-2" transform="translate(0 75.01)">VI<tspan class="cls-3" x="82.44" y="0">V</tspan><tspan x="134.34" y="0">A</tspan></text><text class="cls-4" transform="translate(231.73 77.36)">BEM</text></g></g></svg>