<?xml version="1.0" encoding="utf-8"?>
<!-- Generator: Adobe Illustrator 26.0.1, SVG Export Plug-In . SVG Version: 6.00 Build 0)  -->
<svg version="1.1" id="Camada_1" xmlns="http://www.w3.org/2000/svg" xmlns:xlink="http://www.w3.org/1999/xlink" x="0px" y="0px"
	 viewBox="0 0 419.1 164.4" style="enable-background:new 0 0 419.1 164.4;" xml:space="preserve">
<style type="text/css">
	.st0{fill:#FFFFFF;}
	.st1{enable-background:new    ;}
	.st2{fill:#48C9B0;}
	.st3{fill:#F1C40F;}
</style>
<g id="Camada_2_00000130627755512281713950000007408863940808551560_">
	<g id="OBJECTS">
		<path class="st0" d="M86.3,88.5c1.1-3.4,3.5-4.5,7-4.5c14.2,0.1,28.3,0,42.5,0c4.6,0,6.1,1.2,7.2,5.6c1.7,6.9,3.5,13.8,5.2,20.7
			c0.1,0.7,0.3,1.3,0.8,1.8c4.7-8.9,9.4-17.8,14.1-26.7c0.8-1.6,1.6-3.1,2.4-4.7c1.7-3.2,3.4-4.2,6.2-3.8s4.1,2.4,4.8,5
			c2.9,10.3,5.8,20.6,8.7,30.9c1.5,5.4,3,10.8,5,16.2c0.4-3.4,0.8-6.7,1.2-10.1c2.4-21.7,4.8-43.4,7.1-65.1c1.7-15.3,3.3-30.7,5-46
			c0.1-1.1,0.2-2.2,0.4-3.3c0.5-2.5,2.6-4.2,5.1-4.3c2.6-0.2,4.9,1.6,5.4,4.1c0.9,5.3,1.6,10.7,2.4,16.1c2.3,16.8,4.7,33.6,7,50.3
			c0.6,4.5,1.3,9,1.8,13.6c0.2,1.6,0.7,2.2,2.5,2.2c8.5-0.1,17-0.1,25.4,0c4,0,6.2,1.8,6.5,4.9c0.4,2.8-1.5,5.4-4.3,5.8
			c-0.1,0-0.2,0-0.4,0c-2.9,0.2-5.9,0.2-8.9,0.2c-7.9,0-15.8,0-23.8,0c-4.8,0-6.5-1.4-7.2-6.1c-1.7-12-3.4-24.1-5-36.1
			c-0.1-1.3-0.4-2.5-0.9-3.7c-1.2,10.5-2.3,21-3.5,31.6c-1.7,15.4-3.4,30.9-5.1,46.3c-1,9.5-2.1,18.9-3.1,28.4
			c-0.1,1.2-0.3,2.4-0.7,3.5c-0.8,2.1-2.9,3.4-5.1,3.3c-2.5,0-4.7-1.8-5.2-4.2c-1.5-5.1-2.9-10.3-4.4-15.4l-13-46.1
			c-0.1-0.4-0.2-0.7-0.5-1.5c-0.6,1-1,1.7-1.4,2.4c-5.2,9.8-10.3,19.6-15.5,29.5c-1,1.9-2.1,3.6-4.4,4c-3.2,0.6-5.7-1.2-6.6-4.8
			c-2.6-10.1-5.2-20.3-7.6-30.4c-0.6-2.3-1.3-3.2-3.9-3.1c-12.2,0.2-24.5,0-36.7,0.1c-3.4,0-5.9-1.1-7-4.5L86.3,88.5z"/>
		<path class="st0" d="M317.6,97.3c-2.9,0-5.8,0-8.6,0c-3.7-0.1-6-2.2-6.1-5.3s2.3-5.5,6.2-5.5c5.7-0.1,11.3-0.1,17,0
			c3.7,0,6.1,2.2,6.1,5.3s-2.4,5.4-6.2,5.5L317.6,97.3L317.6,97.3z"/>
		<path class="st0" d="M280.8,97.3c-2.6,0-5.3,0-7.9,0c-3.9-0.1-6.3-2.2-6.3-5.4s2.4-5.4,6.2-5.5c5.3-0.1,10.5-0.1,15.8,0
			c3.8,0,6.2,2.2,6.2,5.5s-2.4,5.3-6.3,5.4C285.9,97.3,283.4,97.3,280.8,97.3z"/>
		<g class="st1">
			<path class="st2" d="M24.4,75h-6.6L5.9,15h8l9.4,48.5L46.6,15h7L24.4,75z"/>
			<path class="st2" d="M68.7,15l-10,60h-7.4l10-60H68.7z"/>
		</g>
		<g class="st1">
			<path class="st2" d="M106.8,75h-6.6L88.3,15h8l9.4,48.5L129,15h7L106.8,75z"/>
		</g>
		<g class="st1">
			<path class="st2" d="M169.1,57.4h-21.9L138.6,75h-6.8l29.5-60h8.3L180,75h-7.7L169.1,57.4z M168.3,51.4l-4.6-27.6l-13.5,27.6
				H168.3z"/>
		</g>
		<g class="st1">
			<path class="st3" d="M235.5,77.4l10-60h18.8c4.8,0,8.4,0.3,10.8,1c2.4,0.7,4.5,2.2,6.4,4.6s2.8,5.2,2.8,8.5
				c0,7.2-3.9,12.1-11.7,14.5c2.9,0.9,5.2,2.6,6.9,5c1.7,2.4,2.6,5.3,2.6,8.7c0,3-0.6,5.8-1.9,8.3c-1.3,2.5-2.9,4.4-4.8,5.8
				s-3.9,2.3-5.8,2.8c-1.9,0.5-5.5,0.8-10.6,0.8H235.5z M243.8,71.4h13c5.2,0,8.8-0.3,10.8-0.9s3.8-1.9,5.2-3.9
				c1.4-2,2.1-4.5,2.1-7.6c0-2.6-0.6-4.7-1.8-6.2c-1.2-1.6-2.7-2.6-4.4-3.1c-1.7-0.5-4.7-0.7-9-0.7h-12.1L243.8,71.4z M248.5,43.2
				h11.3c4.5,0,7.8-0.3,9.9-1c2.1-0.7,3.9-1.9,5.2-3.8s2-4.1,2-6.7c0-2.1-0.6-3.9-1.7-5.4c-1.1-1.4-2.5-2.4-4.1-2.7
				c-1.6-0.4-4.3-0.6-8-0.6l-11.5,0.1L248.5,43.2z"/>
			<path class="st3" d="M290.5,77.4l10-60h37.4l-1,5.9h-30.1L303.5,43h25.8l-1,5.9h-25.7l-3.7,22h32.5l-1.1,6.4H290.5z"/>
			<path class="st3" d="M399.1,77.4h-7.3l9.2-55.1l-28.8,55.1h-5.5L356,23.2l-9.1,54.2h-6.1l10.1-60h11.1l9.8,49.1l25.6-49.1h11.9
				L399.1,77.4z"/>
		</g>
	</g>
</g>
</svg>
